<svg version="1.1" xmlns="http://www.w3.org/2000/svg" viewBox="0 0 1006.34765625 578.97265625" width="1006.34765625" height="578.97265625">
  <!-- svg-source:excalidraw -->
  
  <defs>
    <style class="style-fonts">
      @font-face {
        font-family: "Virgil";
        src: url("https://excalidraw.com/Virgil.woff2");
      }
      @font-face {
        font-family: "Cascadia";
        src: url("https://excalidraw.com/Cascadia.woff2");
      }
    </style>
  </defs>
  <rect x="0" y="0" width="1006.34765625" height="578.97265625" fill="#ffffff"></rect><g stroke-linecap="round" transform="translate(26.3359375 115.0703125) rotate(0 102.001953125 103.060546875)"><path d="M32 0 M32 0 C80.25 1.93, 129.67 -1.29, 172 0 M32 0 C82.69 2.27, 132.47 1.46, 172 0 M172 0 C192.96 0.78, 204.03 10.47, 204 32 M172 0 C194.61 -0.51, 203.81 11.94, 204 32 M204 32 C203.09 75.1, 203.9 113.9, 204 174.12 M204 32 C202.09 61.2, 203.5 91.68, 204 174.12 M204 174.12 C205.16 196.39, 192.43 205.07, 172 206.12 M204 174.12 C205.8 197.59, 193.08 206.11, 172 206.12 M172 206.12 C124.51 208.82, 81.81 208.08, 32 206.12 M172 206.12 C128.38 206.61, 83.62 206.3, 32 206.12 M32 206.12 C11.02 205.74, 1.4 195.18, 0 174.12 M32 206.12 C8.66 206.08, -0.75 196.55, 0 174.12 M0 174.12 C1.1 119.14, -0.44 64.45, 0 32 M0 174.12 C-1.18 141.84, -1.42 109.81, 0 32 M0 32 C0.95 12.65, 11.82 0.31, 32 0 M0 32 C0.99 10.77, 11.46 1.44, 32 0" stroke="#000000" stroke-width="1" fill="none"></path></g><g transform="translate(94.0234375 146.1328125) rotate(0 27.049972534179688 12)"><text x="0" y="0" font-family="Virgil, Segoe UI Emoji" font-size="20px" fill="#000000" text-anchor="start" style="white-space: pre;" direction="ltr">Client</text></g><g transform="translate(94.66015625 224.25) rotate(0 38.39996337890625 24)"><text x="0" y="-24" font-family="Virgil, Segoe UI Emoji" font-size="20px" fill="#000000" text-anchor="start" style="white-space: pre;" direction="ltr">Web</text><text x="0" y="0" font-family="Virgil, Segoe UI Emoji" font-size="20px" fill="#000000" text-anchor="start" style="white-space: pre;" direction="ltr">Browser</text></g><g stroke-linecap="round" transform="translate(520.0625 118.00390625) rotate(0 106.029296875 105.048828125)"><path d="M32 0 M32 0 C76.05 -0.4, 120.79 -0.4, 180.06 0 M32 0 C62.92 0.73, 93.29 1.09, 180.06 0 M180.06 0 C201.65 0.34, 213.44 11.51, 212.06 32 M180.06 0 C203.16 1.99, 212.32 9.74, 212.06 32 M212.06 32 C214.81 67.39, 214.77 102.3, 212.06 178.1 M212.06 32 C211.84 89.99, 211.57 145.09, 212.06 178.1 M212.06 178.1 C212.23 199.62, 203.04 211.18, 180.06 210.1 M212.06 178.1 C211.04 200.16, 200.66 210.39, 180.06 210.1 M180.06 210.1 C150 209.8, 122.17 208.9, 32 210.1 M180.06 210.1 C122.02 209.18, 63.5 209.65, 32 210.1 M32 210.1 C10.82 210.62, 0.01 198.29, 0 178.1 M32 210.1 C12.86 208.42, 1.06 200.79, 0 178.1 M0 178.1 C2.61 133.52, -0.44 91.97, 0 32 M0 178.1 C-0.58 141.08, -1.79 102.35, 0 32 M0 32 C-0.33 8.92, 9.63 0.55, 32 0 M0 32 C-1.78 10.98, 8.92 -1.99, 32 0" stroke="#000000" stroke-width="1" fill="none"></path></g><g transform="translate(591.21484375 143.46875) rotate(0 30.84996795654297 12)"><text x="0" y="0" font-family="Virgil, Segoe UI Emoji" font-size="20px" fill="#000000" text-anchor="start" style="white-space: pre;" direction="ltr">Server</text></g><g transform="translate(594.44140625 215.79296875) rotate(0 23.009986877441406 12)"><text x="0" y="0" font-family="Virgil, Segoe UI Emoji" font-size="20px" fill="#000000" text-anchor="start" style="white-space: pre;" direction="ltr">Web </text></g><g transform="translate(584.8671875 260.13671875) rotate(0 30.84996795654297 12)"><text x="0" y="0" font-family="Virgil, Segoe UI Emoji" font-size="20px" fill="#000000" text-anchor="start" style="white-space: pre;" direction="ltr">Server</text></g><g stroke-linecap="round"><g transform="translate(126.58727953277076 66.16511695200137) rotate(0 271.13827472616634 -1.6653758698082157)"><path d="M0.65 -0.24 C91.25 -0.46, 452.58 -0.87, 542.74 -1.21 M-0.46 -1.41 C90.15 -2, 452.18 -3.11, 542.4 -3.09" stroke="#000000" stroke-width="1" fill="none"></path></g><g transform="translate(126.58727953277076 66.16511695200137) rotate(0 271.13827472616634 -1.6653758698082157)"><path d="M513.83 9.16 C521.49 4.76, 526.17 1.54, 540.56 -2.09 M513.27 8.1 C524.63 2.28, 535.82 -1.69, 542.59 -2.51" stroke="#000000" stroke-width="1" fill="none"></path></g><g transform="translate(126.58727953277076 66.16511695200137) rotate(0 271.13827472616634 -1.6653758698082157)"><path d="M513.79 -11.36 C521.48 -11.04, 526.17 -9.54, 540.56 -2.09 M513.23 -12.42 C524.8 -10.15, 536 -6.03, 542.59 -2.51" stroke="#000000" stroke-width="1" fill="none"></path></g></g><mask></mask><g stroke-linecap="round"><g transform="translate(527.86328125 353.7109375) rotate(0 -144.94484943713525 0.5604562307979393)"><path d="M0.46 -0.63 C-47.83 -0.52, -241.56 0.36, -290.01 0.55 M-0.76 1.65 C-49.08 1.9, -242.05 1.63, -290.35 1.57" stroke="#000000" stroke-width="1" fill="none"></path></g><g transform="translate(527.86328125 353.7109375) rotate(0 -144.94484943713525 0.5604562307979393)"><path d="M-263.2 -6.71 C-271.57 -4.21, -279.41 -1.15, -289.64 3.35 M-262.15 -7.93 C-269.99 -6.29, -279.38 -3.54, -289.57 0.63" stroke="#000000" stroke-width="1" fill="none"></path></g><g transform="translate(527.86328125 353.7109375) rotate(0 -144.94484943713525 0.5604562307979393)"><path d="M-263.22 13.81 C-271.56 10.64, -279.4 8.03, -289.64 3.35 M-262.18 12.6 C-269.86 7.98, -279.24 4.48, -289.57 0.63" stroke="#000000" stroke-width="1" fill="none"></path></g></g><mask></mask><g transform="translate(258.5703125 88.7734375) rotate(0 123.47990417480469 60)"><text x="0" y="-96" font-family="Virgil, Segoe UI Emoji" font-size="20px" fill="#000000" text-anchor="start" style="white-space: pre;" direction="ltr">'Get' info to Google API</text><text x="0" y="-72" font-family="Virgil, Segoe UI Emoji" font-size="20px" fill="#000000" text-anchor="start" style="white-space: pre;" direction="ltr">Keyword Search</text><text x="0" y="-48" font-family="Virgil, Segoe UI Emoji" font-size="20px" fill="#000000" text-anchor="start" style="white-space: pre;" direction="ltr">axios.get (url)</text><text x="0" y="-24" font-family="Virgil, Segoe UI Emoji" font-size="20px" fill="#000000" text-anchor="start" style="white-space: pre;" direction="ltr">Search String</text><text x="0" y="0" font-family="Virgil, Segoe UI Emoji" font-size="20px" fill="#000000" text-anchor="start" style="white-space: pre;" direction="ltr"></text></g><g transform="translate(288.0625 366.453125) rotate(0 53.18994140625 48)"><text x="0" y="-72" font-family="Virgil, Segoe UI Emoji" font-size="20px" fill="#000000" text-anchor="start" style="white-space: pre;" direction="ltr">Books:</text><text x="0" y="-48" font-family="Virgil, Segoe UI Emoji" font-size="20px" fill="#000000" text-anchor="start" style="white-space: pre;" direction="ltr">Title</text><text x="0" y="-24" font-family="Virgil, Segoe UI Emoji" font-size="20px" fill="#000000" text-anchor="start" style="white-space: pre;" direction="ltr">Author</text><text x="0" y="0" font-family="Virgil, Segoe UI Emoji" font-size="20px" fill="#000000" text-anchor="start" style="white-space: pre;" direction="ltr">Description</text></g><g stroke-linecap="round"><g transform="translate(35.19921875 191.76171875) rotate(0 96.97873178814072 -1.0960464417934475)"><path d="M1.16 0.42 C33.61 -0.21, 161.84 -2.3, 193.65 -2.61 M0.31 -0.4 C32.78 -0.41, 161.45 -1.67, 193.22 -1.61" stroke="#000000" stroke-width="1" fill="none"></path></g></g><mask></mask><g stroke-linecap="round"><g transform="translate(526.34765625 191.8125) rotate(0 105.68206396424216 0.12705904084725717)"><path d="M0.97 -0.5 C35.78 -0.05, 174.4 1.63, 209 2.06 M0.03 -1.81 C35.21 -1.68, 176.2 -0.17, 211.34 0.13" stroke="#000000" stroke-width="1" fill="none"></path></g></g><mask></mask><g transform="translate(273.484375 326.6796875) rotate(0 84.10993194580078 12)"><text x="0" y="0" font-family="Virgil, Segoe UI Emoji" font-size="20px" fill="#000000" text-anchor="start" style="white-space: pre;" direction="ltr">Array of Objects</text></g><g stroke-linecap="round" transform="translate(10 292.4765625) rotate(0 69.0078125 66.23828125)"><path d="M32 0 M32 0 C57.2 1.02, 82.43 0.18, 106.02 0 M32 0 C46.3 -1.03, 62.67 0.3, 106.02 0 M106.02 0 C128.17 1.75, 139.86 9.47, 138.02 32 M106.02 0 C128.48 -0.13, 139.47 11.8, 138.02 32 M138.02 32 C139.5 46.32, 136.13 62.8, 138.02 100.48 M138.02 32 C137.18 49.28, 138.49 68.37, 138.02 100.48 M138.02 100.48 C138.48 123.43, 125.61 133.84, 106.02 132.48 M138.02 100.48 C136.53 121.33, 128.59 131.97, 106.02 132.48 M106.02 132.48 C89.32 131.62, 75.88 132.42, 32 132.48 M106.02 132.48 C79.2 132.89, 52.02 131.49, 32 132.48 M32 132.48 C11.78 134.15, -1.2 120.43, 0 100.48 M32 132.48 C11.95 134.32, -1.69 119.71, 0 100.48 M0 100.48 C-1.3 79.33, 0.91 58.9, 0 32 M0 100.48 C-0.43 82.81, 0.41 64.75, 0 32 M0 32 C1.68 9.53, 9.55 -1.42, 32 0 M0 32 C1.23 10.63, 11.77 -0.12, 32 0" stroke="#000000" stroke-width="1" fill="none"></path></g><g transform="translate(25.296875 320.84765625) rotate(0 56.2099609375 48)"><text x="0" y="-72" font-family="Virgil, Segoe UI Emoji" font-size="20px" fill="#000000" text-anchor="start" style="white-space: pre;" direction="ltr">Map Arrays</text><text x="0" y="-48" font-family="Virgil, Segoe UI Emoji" font-size="20px" fill="#000000" text-anchor="start" style="white-space: pre;" direction="ltr">into</text><text x="0" y="-24" font-family="Virgil, Segoe UI Emoji" font-size="20px" fill="#000000" text-anchor="start" style="white-space: pre;" direction="ltr">Bootstrap </text><text x="0" y="0" font-family="Virgil, Segoe UI Emoji" font-size="20px" fill="#000000" text-anchor="start" style="white-space: pre;" direction="ltr">Components</text></g><g transform="translate(188.83203125 28.390625) rotate(0 189.6998291015625 12)"><text x="0" y="0" font-family="Virgil, Segoe UI Emoji" font-size="20px" fill="#000000" text-anchor="start" style="white-space: pre;" direction="ltr">Book Title, Image, Author, Description</text></g><g stroke-linecap="round" transform="translate(749.35546875 10) rotate(0 123.49609375 59.451171875)"><path d="M29.73 0 M29.73 0 C93.48 -1.03, 156.55 1.95, 217.27 0 M29.73 0 C78.84 1.82, 128.37 1.84, 217.27 0 M217.27 0 C235.11 -1.06, 248.61 10.96, 246.99 29.73 M217.27 0 C237.76 0.66, 248.87 11.51, 246.99 29.73 M246.99 29.73 C248.74 45.53, 248.74 64.45, 246.99 89.18 M246.99 29.73 C247.96 47.76, 246.99 65.32, 246.99 89.18 M246.99 89.18 C247.73 107.16, 237.48 118.83, 217.27 118.9 M246.99 89.18 C244.86 111.07, 236.69 117.24, 217.27 118.9 M217.27 118.9 C159.76 118.51, 100.4 120.41, 29.73 118.9 M217.27 118.9 C166.45 120.06, 115.87 119.91, 29.73 118.9 M29.73 118.9 C9.69 119.13, -0.99 108.67, 0 89.18 M29.73 118.9 C9.01 118.62, 0.17 110.05, 0 89.18 M0 89.18 C1.26 69.59, 1.04 51.28, 0 29.73 M0 89.18 C-0.37 77.01, -0.08 64.65, 0 29.73 M0 29.73 C1.86 10.1, 11.64 1.14, 29.73 0 M0 29.73 C-0.01 10.62, 11.74 -0.33, 29.73 0" stroke="#000000" stroke-width="1" fill="none"></path></g><g transform="translate(792.48828125 42.7734375) rotate(0 89.34992980957031 12)"><text x="0" y="0" font-family="Virgil, Segoe UI Emoji" font-size="20px" fill="#000000" text-anchor="start" style="white-space: pre;" direction="ltr">Google Books API</text></g><g stroke-linecap="round"><g transform="translate(765.20703125 118.90625) rotate(0 -23.89849205621522 16.091091898796137)"><path d="M-0.51 0.28 C-8.4 5.66, -40.19 27.58, -48 32.79 M1.42 -0.61 C-6.62 4.4, -40.96 25.61, -49.21 31.18" stroke="#000000" stroke-width="1" fill="none"></path></g><g transform="translate(765.20703125 118.90625) rotate(0 -23.89849205621522 16.091091898796137)"><path d="M-31.4 7.61 C-34.42 14.11, -40.69 17.8, -50.87 29.66 M-31.76 7.76 C-35.46 14.14, -39.43 19.44, -48.54 31.96" stroke="#000000" stroke-width="1" fill="none"></path></g><g transform="translate(765.20703125 118.90625) rotate(0 -23.89849205621522 16.091091898796137)"><path d="M-20.85 24.08 C-26.52 26.5, -35.37 26.15, -50.87 29.66 M-21.2 24.22 C-27.35 26.93, -33.73 28.47, -48.54 31.96" stroke="#000000" stroke-width="1" fill="none"></path></g></g><mask></mask><g stroke-linecap="round"><g transform="translate(703.6796875 130.88671875) rotate(0 31.347062081373224 -18.469601569972)"><path d="M0.46 0.26 C11.09 -5.51, 52.97 -29.46, 63.46 -35.58 M-0.76 -0.65 C9.81 -6.66, 52.28 -31.46, 62.89 -37.2" stroke="#000000" stroke-width="1" fill="none"></path></g><g transform="translate(703.6796875 130.88671875) rotate(0 31.347062081373224 -18.469601569972)"><path d="M43.84 -13.18 C50.47 -19.62, 54.29 -27.74, 63.93 -36.13 M44.18 -13.46 C46.5 -18.73, 50.91 -24.38, 63.71 -36.75" stroke="#000000" stroke-width="1" fill="none"></path></g><g transform="translate(703.6796875 130.88671875) rotate(0 31.347062081373224 -18.469601569972)"><path d="M33.74 -31.04 C42.97 -32.67, 49.54 -35.94, 63.93 -36.13 M34.08 -31.32 C38.39 -32.95, 44.84 -34.99, 63.71 -36.75" stroke="#000000" stroke-width="1" fill="none"></path></g></g><mask></mask><g stroke-linecap="round" transform="translate(763.30859375 172.5390625) rotate(0 77.27734375 58.267578125)"><path d="M29.13 0 M29.13 0 C66.68 2.78, 105.82 2.45, 125.42 0 M29.13 0 C66.63 -0.55, 105.25 -1.46, 125.42 0 M125.42 0 C145.19 1.72, 155.65 9.24, 154.55 29.13 M125.42 0 C144.67 -1.12, 152.77 8.08, 154.55 29.13 M154.55 29.13 C152.86 51.67, 153.38 72.61, 154.55 87.4 M154.55 29.13 C155.54 46.67, 155.86 65.57, 154.55 87.4 M154.55 87.4 C153.14 106.42, 145.29 118.33, 125.42 116.54 M154.55 87.4 C153.42 108.12, 144.24 116.31, 125.42 116.54 M125.42 116.54 C107.1 116.09, 85.05 115.97, 29.13 116.54 M125.42 116.54 C98.47 116.94, 71.71 116.21, 29.13 116.54 M29.13 116.54 C11.16 118.07, 1.8 106.53, 0 87.4 M29.13 116.54 C10.68 116.82, 2.29 107.19, 0 87.4 M0 87.4 C0.85 69.29, 0.51 50.62, 0 29.13 M0 87.4 C1.13 73.36, -0.63 59.46, 0 29.13 M0 29.13 C-0.87 10.15, 11.32 1.61, 29.13 0 M0 29.13 C-0.38 8.02, 11.82 -1.8, 29.13 0" stroke="#000000" stroke-width="1" fill="none"></path></g><g transform="translate(799.5234375 212.203125) rotate(0 46.22996520996094 12)"><text x="0" y="0" font-family="Virgil, Segoe UI Emoji" font-size="20px" fill="#000000" text-anchor="start" style="white-space: pre;" direction="ltr">Mongo.DB</text></g><g stroke-linecap="round"><g transform="translate(719.265625 231.19140625) rotate(0 32.989274924374286 0.6013633235322402)"><path d="M0.26 0.97 C11.56 1.03, 56.22 -0.16, 67.04 -0.13 M-1.06 0.43 C10.23 0.72, 55.15 1.48, 66.6 1.31" stroke="#000000" stroke-width="1" fill="none"></path></g><g transform="translate(719.265625 231.19140625) rotate(0 32.989274924374286 0.6013633235322402)"><path d="M39.98 13.08 C44.81 7.52, 53.71 5, 67.68 0.99 M38.39 11.93 C48.08 8.36, 58.02 3.87, 66.07 2" stroke="#000000" stroke-width="1" fill="none"></path></g><g transform="translate(719.265625 231.19140625) rotate(0 32.989274924374286 0.6013633235322402)"><path d="M40.05 -7.44 C44.78 -8.11, 53.65 -5.74, 67.68 0.99 M38.45 -8.59 C48.12 -5.31, 58.04 -2.94, 66.07 2" stroke="#000000" stroke-width="1" fill="none"></path></g></g><mask></mask><g stroke-linecap="round"><g transform="translate(791.25 257.4140625) rotate(0 -49.96394444927574 -0.8426548774134233)"><path d="M1.13 0.2 C-15.8 0.28, -84.17 -0.1, -101.06 -0.21 M0.26 -0.74 C-16.3 -0.93, -81.8 -1.61, -98.65 -1.9" stroke="#000000" stroke-width="1" fill="none"></path></g><g transform="translate(791.25 257.4140625) rotate(0 -49.96394444927574 -0.8426548774134233)"><path d="M-69.99 -12.75 C-78.68 -7.69, -88.73 -5.33, -100.13 -3.36 M-71.22 -11.68 C-78.43 -9.43, -85.09 -6.89, -98.83 -2.03" stroke="#000000" stroke-width="1" fill="none"></path></g><g transform="translate(791.25 257.4140625) rotate(0 -49.96394444927574 -0.8426548774134233)"><path d="M-70.26 7.77 C-78.74 5.82, -88.7 1.18, -100.13 -3.36 M-71.5 8.84 C-78.8 5.44, -85.39 2.33, -98.83 -2.03" stroke="#000000" stroke-width="1" fill="none"></path></g></g><mask></mask><g stroke-linecap="round" transform="translate(93.203125 419.58984375) rotate(0 91.25 74.69140625)"><path d="M32 0 M32 0 C74.47 0.52, 118.75 0.84, 150.5 0 M32 0 C70.93 0.6, 110.18 1.22, 150.5 0 M150.5 0 C172.85 1.77, 184.4 11.08, 182.5 32 M150.5 0 C173.37 -1.85, 181.56 12.68, 182.5 32 M182.5 32 C183.04 65.61, 185.11 95.37, 182.5 117.38 M182.5 32 C183.35 60.07, 182.69 85.87, 182.5 117.38 M182.5 117.38 C181.87 140.17, 172.06 149.98, 150.5 149.38 M182.5 117.38 C182.33 140.54, 173.35 149.86, 150.5 149.38 M150.5 149.38 C125.22 149.2, 98.94 149.23, 32 149.38 M150.5 149.38 C109.75 151.13, 69.61 150.2, 32 149.38 M32 149.38 C10.65 150.69, -0.13 137.78, 0 117.38 M32 149.38 C11.39 147.46, -0.64 138.92, 0 117.38 M0 117.38 C-0.09 86.66, -2.15 56.83, 0 32 M0 117.38 C-0.05 84.12, -0.24 50.37, 0 32 M0 32 C-0.24 10.25, 11.51 -1.38, 32 0 M0 32 C-1.78 8.77, 9.23 0.07, 32 0" stroke="#000000" stroke-width="1" fill="none"></path></g><g transform="translate(118.3125 428.4453125) rotate(0 82.99994659423828 24)"><text x="0" y="-24" font-family="Virgil, Segoe UI Emoji" font-size="20px" fill="#000000" text-anchor="start" style="white-space: pre;" direction="ltr">Modal of</text><text x="0" y="0" font-family="Virgil, Segoe UI Emoji" font-size="20px" fill="#000000" text-anchor="start" style="white-space: pre;" direction="ltr">Books to CRUD </text></g></svg>